<svg width="414" height="736" viewBox="0 0 414 736" fill="none" xmlns="http://www.w3.org/2000/svg">
<rect width="414" height="736" fill="white"/>
<g clip-path="url(#clip0_135_28)">
<rect x="77" y="115" width="48" height="598" fill="#010852"/>
<path d="M98 570C98 569.448 98.4477 569 99 569H105C105.552 569 106 569.448 106 570V613C106 613.552 105.552 614 105 614H99C98.4477 614 98 613.552 98 613V570Z" fill="white"/>
<rect x="98" y="486" width="8" height="45" rx="1" fill="white"/>
<path d="M98 404.5C98 403.948 98.4477 403.5 99 403.5H105C105.552 403.5 106 403.948 106 404.5V447.5C106 448.052 105.552 448.5 105 448.5H99C98.4477 448.5 98 448.052 98 447.5V404.5Z" fill="white"/>
<rect x="98" y="321" width="8" height="45" rx="1" fill="white"/>
</g>
<circle cx="211" cy="242" r="125" fill="#010852"/>
<circle cx="211" cy="242" r="80" fill="white"/>
<rect x="98" y="242" width="8" height="45" rx="1" fill="white"/>
<rect x="98" y="162" width="8" height="45" rx="1" fill="white"/>
<path d="M132.024 617.288C131.448 617.288 130.98 617.156 130.62 616.892C130.284 616.628 130.08 616.28 130.008 615.848C129.936 615.392 130.02 614.888 130.26 614.336L139.764 593.276C140.076 592.58 140.448 592.088 140.88 591.8C141.336 591.488 141.852 591.332 142.428 591.332C142.98 591.332 143.472 591.488 143.904 591.8C144.36 592.088 144.744 592.58 145.056 593.276L154.596 614.336C154.86 614.888 154.956 615.392 154.884 615.848C154.812 616.304 154.608 616.664 154.272 616.928C153.936 617.168 153.492 617.288 152.94 617.288C152.268 617.288 151.74 617.132 151.356 616.82C150.996 616.484 150.672 615.98 150.384 615.308L148.044 609.872L149.988 611.132H134.796L136.74 609.872L134.436 615.308C134.124 616.004 133.8 616.508 133.464 616.82C133.128 617.132 132.648 617.288 132.024 617.288ZM142.356 596.624L137.316 608.612L136.38 607.46H148.404L147.504 608.612L142.428 596.624H142.356ZM160.865 617.288C160.121 617.288 159.545 617.084 159.137 616.676C158.753 616.244 158.561 615.656 158.561 614.912V593.96C158.561 593.192 158.765 592.616 159.173 592.232C159.581 591.824 160.157 591.62 160.901 591.62H169.577C172.361 591.62 174.509 592.292 176.021 593.636C177.533 594.956 178.289 596.816 178.289 599.216C178.289 600.776 177.941 602.12 177.245 603.248C176.573 604.376 175.589 605.24 174.293 605.84C172.997 606.44 171.425 606.74 169.577 606.74L169.901 606.2H171.089C172.073 606.2 172.925 606.44 173.645 606.92C174.389 607.4 175.037 608.156 175.589 609.188L178.289 614.192C178.577 614.696 178.709 615.188 178.685 615.668C178.661 616.148 178.481 616.544 178.145 616.856C177.809 617.144 177.317 617.288 176.669 617.288C176.021 617.288 175.493 617.156 175.085 616.892C174.677 616.604 174.317 616.172 174.005 615.596L170.369 608.9C169.937 608.084 169.421 607.544 168.821 607.28C168.245 606.992 167.501 606.848 166.589 606.848H163.169V614.912C163.169 615.656 162.977 616.244 162.593 616.676C162.209 617.084 161.633 617.288 160.865 617.288ZM163.169 603.428H168.785C170.441 603.428 171.689 603.092 172.529 602.42C173.393 601.724 173.825 600.692 173.825 599.324C173.825 597.98 173.393 596.972 172.529 596.3C171.689 595.604 170.441 595.256 168.785 595.256H163.169V603.428ZM185.545 617.288C184.801 617.288 184.225 617.084 183.817 616.676C183.433 616.244 183.241 615.656 183.241 614.912V593.672C183.241 592.904 183.433 592.328 183.817 591.944C184.225 591.536 184.801 591.332 185.545 591.332C186.289 591.332 186.853 591.536 187.237 591.944C187.645 592.328 187.849 592.904 187.849 593.672V602.852H187.921L198.253 592.484C198.637 592.1 199.021 591.812 199.405 591.62C199.789 591.428 200.221 591.332 200.701 591.332C201.397 591.332 201.889 591.512 202.177 591.872C202.489 592.232 202.609 592.652 202.537 593.132C202.489 593.612 202.261 594.056 201.853 594.464L191.341 604.868L191.377 602.78L202.357 613.94C202.861 614.42 203.125 614.924 203.149 615.452C203.173 615.98 203.005 616.424 202.645 616.784C202.309 617.12 201.805 617.288 201.133 617.288C200.557 617.288 200.089 617.168 199.729 616.928C199.393 616.688 198.997 616.34 198.541 615.884L187.921 605.264H187.849V614.912C187.849 615.656 187.657 616.244 187.273 616.676C186.889 617.084 186.313 617.288 185.545 617.288ZM209.486 617.288C208.742 617.288 208.166 617.084 207.758 616.676C207.374 616.244 207.182 615.656 207.182 614.912V593.708C207.182 592.94 207.374 592.352 207.758 591.944C208.166 591.536 208.742 591.332 209.486 591.332C210.23 591.332 210.794 591.536 211.178 591.944C211.586 592.352 211.79 592.94 211.79 593.708V614.912C211.79 615.656 211.598 616.244 211.214 616.676C210.83 617.084 210.254 617.288 209.486 617.288ZM219.502 617.288C218.806 617.288 218.266 617.096 217.882 616.712C217.522 616.328 217.342 615.776 217.342 615.056V593.636C217.342 592.892 217.522 592.328 217.882 591.944C218.266 591.536 218.758 591.332 219.358 591.332C219.91 591.332 220.318 591.44 220.582 591.656C220.87 591.848 221.206 592.184 221.59 592.664L235.378 610.556H234.442V593.528C234.442 592.832 234.622 592.292 234.982 591.908C235.366 591.524 235.906 591.332 236.602 591.332C237.298 591.332 237.826 591.524 238.186 591.908C238.546 592.292 238.726 592.832 238.726 593.528V615.128C238.726 615.8 238.558 616.328 238.222 616.712C237.886 617.096 237.43 617.288 236.854 617.288C236.302 617.288 235.858 617.18 235.522 616.964C235.21 616.748 234.862 616.4 234.478 615.92L220.726 598.028H221.626V615.056C221.626 615.776 221.446 616.328 221.086 616.712C220.726 617.096 220.198 617.288 219.502 617.288ZM256.476 617.36C253.668 617.36 251.292 616.832 249.348 615.776C247.428 614.72 245.964 613.22 244.956 611.276C243.948 609.332 243.444 607.028 243.444 604.364C243.444 602.348 243.732 600.536 244.308 598.928C244.908 597.32 245.76 595.952 246.864 594.824C247.992 593.672 249.36 592.796 250.968 592.196C252.576 591.572 254.4 591.26 256.44 591.26C257.784 591.26 259.128 591.428 260.472 591.764C261.84 592.076 263.124 592.616 264.324 593.384C264.732 593.648 264.996 593.972 265.116 594.356C265.26 594.74 265.284 595.136 265.188 595.544C265.092 595.928 264.912 596.264 264.648 596.552C264.384 596.84 264.048 597.02 263.64 597.092C263.256 597.164 262.824 597.068 262.344 596.804C261.432 596.276 260.508 595.892 259.572 595.652C258.636 595.412 257.592 595.292 256.44 595.292C254.664 595.292 253.164 595.652 251.94 596.372C250.716 597.068 249.792 598.088 249.168 599.432C248.568 600.776 248.268 602.42 248.268 604.364C248.268 607.316 248.976 609.56 250.392 611.096C251.808 612.632 253.908 613.4 256.692 613.4C257.652 613.4 258.624 613.304 259.608 613.112C260.592 612.92 261.552 612.656 262.488 612.32L261.588 614.372V606.704H257.628C257.028 606.704 256.56 606.548 256.224 606.236C255.912 605.924 255.756 605.504 255.756 604.976C255.756 604.424 255.912 604.004 256.224 603.716C256.56 603.428 257.028 603.284 257.628 603.284H263.568C264.168 603.284 264.624 603.452 264.936 603.788C265.272 604.1 265.44 604.556 265.44 605.156V613.904C265.44 614.432 265.332 614.876 265.116 615.236C264.924 615.596 264.6 615.86 264.144 616.028C263.088 616.412 261.876 616.736 260.508 617C259.14 617.24 257.796 617.36 256.476 617.36ZM193.952 638.192C192.336 638.192 190.952 637.848 189.8 637.16C188.648 636.456 187.76 635.456 187.136 634.16C186.528 632.864 186.224 631.32 186.224 629.528C186.224 628.184 186.392 626.984 186.728 625.928C187.08 624.856 187.584 623.952 188.24 623.216C188.912 622.464 189.728 621.888 190.688 621.488C191.664 621.088 192.752 620.888 193.952 620.888C195.008 620.888 195.992 621.04 196.904 621.344C197.816 621.648 198.6 622.096 199.256 622.688C199.416 622.832 199.52 622.984 199.568 623.144C199.616 623.304 199.616 623.456 199.568 623.6C199.536 623.728 199.464 623.84 199.352 623.936C199.24 624.016 199.104 624.056 198.944 624.056C198.8 624.04 198.64 623.96 198.464 623.816C197.856 623.288 197.176 622.896 196.424 622.64C195.688 622.384 194.872 622.256 193.976 622.256C192.648 622.256 191.52 622.544 190.592 623.12C189.68 623.68 188.984 624.504 188.504 625.592C188.04 626.68 187.808 627.992 187.808 629.528C187.808 631.08 188.04 632.4 188.504 633.488C188.984 634.576 189.68 635.408 190.592 635.984C191.52 636.544 192.648 636.824 193.976 636.824C194.856 636.824 195.672 636.696 196.424 636.44C197.176 636.168 197.864 635.768 198.488 635.24C198.664 635.096 198.824 635.024 198.968 635.024C199.128 635.024 199.256 635.072 199.352 635.168C199.464 635.248 199.544 635.36 199.592 635.504C199.64 635.632 199.64 635.768 199.592 635.912C199.56 636.056 199.472 636.192 199.328 636.32C198.64 636.944 197.84 637.416 196.928 637.736C196.032 638.04 195.04 638.192 193.952 638.192ZM209.369 638.192C207.833 638.192 206.497 637.84 205.361 637.136C204.225 636.432 203.345 635.432 202.721 634.136C202.113 632.84 201.809 631.304 201.809 629.528C201.809 628.184 201.977 626.984 202.313 625.928C202.665 624.856 203.169 623.952 203.825 623.216C204.481 622.464 205.273 621.888 206.201 621.488C207.145 621.088 208.201 620.888 209.369 620.888C210.937 620.888 212.289 621.24 213.425 621.944C214.561 622.632 215.433 623.624 216.041 624.92C216.649 626.2 216.953 627.728 216.953 629.504C216.953 630.848 216.777 632.056 216.425 633.128C216.073 634.2 215.569 635.112 214.913 635.864C214.257 636.616 213.457 637.192 212.513 637.592C211.585 637.992 210.537 638.192 209.369 638.192ZM209.369 636.848C210.649 636.848 211.737 636.56 212.633 635.984C213.529 635.408 214.209 634.576 214.673 633.488C215.153 632.4 215.393 631.08 215.393 629.528C215.393 627.208 214.865 625.416 213.809 624.152C212.769 622.872 211.289 622.232 209.369 622.232C208.105 622.232 207.025 622.52 206.129 623.096C205.233 623.672 204.545 624.504 204.065 625.592C203.601 626.68 203.369 627.992 203.369 629.528C203.369 631.832 203.897 633.632 204.953 634.928C206.009 636.208 207.481 636.848 209.369 636.848ZM221.388 638.144C221.164 638.144 220.988 638.08 220.86 637.952C220.748 637.824 220.692 637.64 220.692 637.4V621.704C220.692 621.448 220.748 621.256 220.86 621.128C220.972 621 221.124 620.936 221.316 620.936C221.524 620.936 221.676 620.968 221.772 621.032C221.868 621.096 221.972 621.216 222.084 621.392L233.124 636.248H232.572V621.656C232.572 621.416 232.628 621.24 232.74 621.128C232.868 621 233.044 620.936 233.268 620.936C233.476 620.936 233.636 621 233.748 621.128C233.876 621.24 233.94 621.416 233.94 621.656V637.4C233.94 637.64 233.884 637.824 233.772 637.952C233.676 638.08 233.532 638.144 233.34 638.144C233.164 638.144 233.02 638.104 232.908 638.024C232.796 637.96 232.676 637.848 232.548 637.688L221.532 622.832H222.06V637.4C222.06 637.64 221.996 637.824 221.868 637.952C221.756 638.08 221.596 638.144 221.388 638.144ZM243.284 638.144C243.044 638.144 242.86 638.08 242.732 637.952C242.604 637.808 242.54 637.616 242.54 637.376V622.4H236.804C236.58 622.4 236.404 622.336 236.276 622.208C236.148 622.08 236.084 621.92 236.084 621.728C236.084 621.52 236.148 621.36 236.276 621.248C236.404 621.136 236.58 621.08 236.804 621.08H249.788C250.012 621.08 250.18 621.136 250.292 621.248C250.42 621.36 250.484 621.52 250.484 621.728C250.484 621.936 250.42 622.104 250.292 622.232C250.18 622.344 250.012 622.4 249.788 622.4H244.028V637.376C244.028 637.616 243.964 637.808 243.836 637.952C243.724 638.08 243.54 638.144 243.284 638.144ZM253.334 638.144C253.11 638.144 252.934 638.08 252.806 637.952C252.678 637.808 252.614 637.616 252.614 637.376V621.848C252.614 621.592 252.678 621.4 252.806 621.272C252.95 621.144 253.134 621.08 253.358 621.08H258.998C260.79 621.08 262.166 621.496 263.126 622.328C264.086 623.16 264.566 624.344 264.566 625.88C264.566 626.872 264.35 627.728 263.918 628.448C263.486 629.152 262.846 629.688 261.998 630.056C261.166 630.424 260.166 630.608 258.998 630.608L259.262 630.296H259.598C260.206 630.296 260.734 630.456 261.182 630.776C261.646 631.096 262.062 631.616 262.43 632.336L264.974 637.064C265.086 637.24 265.134 637.416 265.118 637.592C265.118 637.752 265.062 637.888 264.95 638C264.838 638.096 264.694 638.144 264.518 638.144C264.31 638.144 264.134 638.096 263.99 638C263.862 637.904 263.75 637.768 263.654 637.592L260.966 632.576C260.55 631.808 260.086 631.304 259.574 631.064C259.062 630.808 258.374 630.68 257.51 630.68H254.078V637.376C254.078 637.616 254.014 637.808 253.886 637.952C253.774 638.08 253.59 638.144 253.334 638.144ZM254.078 629.432H258.806C260.23 629.432 261.294 629.136 261.998 628.544C262.718 627.936 263.078 627.048 263.078 625.88C263.078 624.728 262.718 623.856 261.998 623.264C261.294 622.656 260.23 622.352 258.806 622.352H254.078V629.432ZM275.252 638.192C273.716 638.192 272.38 637.84 271.244 637.136C270.108 636.432 269.228 635.432 268.604 634.136C267.996 632.84 267.692 631.304 267.692 629.528C267.692 628.184 267.86 626.984 268.196 625.928C268.548 624.856 269.052 623.952 269.708 623.216C270.364 622.464 271.156 621.888 272.084 621.488C273.028 621.088 274.084 620.888 275.252 620.888C276.82 620.888 278.172 621.24 279.308 621.944C280.444 622.632 281.316 623.624 281.924 624.92C282.532 626.2 282.836 627.728 282.836 629.504C282.836 630.848 282.66 632.056 282.308 633.128C281.956 634.2 281.452 635.112 280.796 635.864C280.14 636.616 279.34 637.192 278.396 637.592C277.468 637.992 276.42 638.192 275.252 638.192ZM275.252 636.848C276.532 636.848 277.62 636.56 278.516 635.984C279.412 635.408 280.092 634.576 280.556 633.488C281.036 632.4 281.276 631.08 281.276 629.528C281.276 627.208 280.748 625.416 279.692 624.152C278.652 622.872 277.172 622.232 275.252 622.232C273.988 622.232 272.908 622.52 272.012 623.096C271.116 623.672 270.428 624.504 269.948 625.592C269.484 626.68 269.252 627.992 269.252 629.528C269.252 631.832 269.78 633.632 270.836 634.928C271.892 636.208 273.364 636.848 275.252 636.848ZM287.319 638C287.095 638 286.911 637.936 286.767 637.808C286.639 637.664 286.575 637.472 286.575 637.232V621.728C286.575 621.472 286.639 621.28 286.767 621.152C286.895 621.024 287.071 620.96 287.295 620.96C287.535 620.96 287.719 621.024 287.847 621.152C287.975 621.28 288.039 621.472 288.039 621.728V636.68H296.295C296.535 636.68 296.711 636.736 296.823 636.848C296.951 636.96 297.015 637.12 297.015 637.328C297.015 637.552 296.951 637.72 296.823 637.832C296.711 637.944 296.535 638 296.295 638H287.319Z" fill="#010852"/>
<defs>
<clipPath id="clip0_135_28">
<rect width="48" height="502" fill="white" transform="translate(77 115)"/>
</clipPath>
</defs>
</svg>
